<svg width="24" height="24" viewBox="0 0 24 24" fill="none" xmlns="http://www.w3.org/2000/svg">
<path d="M4.99902 21C4.99902 19.8954 5.89445 19 6.99902 19C8.10359 19 8.99902 19.8954 8.99902 21C8.99902 22.1046 8.10359 23 6.99902 23C5.89445 23 4.99902 22.1046 4.99902 21ZM16.999 21C16.999 19.8954 17.8945 19 18.999 19C20.1036 19 20.999 19.8954 20.999 21C20.999 22.1046 20.1036 23 18.999 23C17.8945 23 16.999 22.1046 16.999 21ZM4.60938 3.50586L4.75684 3.53418C5.09308 3.62384 5.36335 3.88404 5.46094 4.22559L8.0459 13.2744C8.16856 13.7037 8.56133 14 9.00781 14H17.8818C18.3533 14 18.7614 13.6709 18.8604 13.21L19.7812 8.90918L8.60308 8.04946L8.0459 6L21.0762 7.00293C21.3636 7.02517 21.6272 7.1705 21.7998 7.40137C21.9725 7.63257 22.037 7.9278 21.9766 8.20996L20.8154 13.6289C20.5189 15.0119 19.2963 16 17.8818 16H9.00781C7.66839 16 6.49104 15.1121 6.12305 13.8242L3.7207 5.41992L0.726605 5.08724L0.109375 3.00586L4.60938 3.50586Z" fill="currentColor"/>
</svg>
