<svg width="24" height="24" viewBox="0 0 24 24" fill="none" xmlns="http://www.w3.org/2000/svg">
<path d="M4.86426 21.501L4.86621 21.5L4.86719 21.498V21.4971L3.13281 20.5029V20.502C3.13328 20.5011 3.13424 20.4999 3.13477 20.499C3.13586 20.4971 3.13731 20.4945 3.13867 20.4922C3.14134 20.4876 3.14476 20.4817 3.14844 20.4756C3.15596 20.463 3.16596 20.4474 3.17773 20.4287C3.20159 20.3908 3.23422 20.34 3.27637 20.2793C3.36067 20.1578 3.4832 19.9944 3.64746 19.8027C3.97622 19.4192 4.4746 18.9222 5.17676 18.4307C6.59175 17.4402 8.79123 16.5 12 16.5C15.2088 16.5 17.4082 17.4402 18.8232 18.4307C19.5254 18.9222 20.0238 19.4192 20.3525 19.8027C20.5168 19.9944 20.6393 20.1578 20.7236 20.2793C20.7658 20.34 20.7984 20.3908 20.8223 20.4287C20.834 20.4474 20.844 20.463 20.8516 20.4756C20.8552 20.4817 20.8587 20.4876 20.8613 20.4922C20.8627 20.4945 20.8641 20.4971 20.8652 20.499C20.8658 20.4999 20.8667 20.5011 20.8672 20.502V20.5029L19.1328 21.4971V21.498L19.1338 21.5L19.1348 21.501C19.1337 21.4992 19.132 21.4966 19.1299 21.4932C19.1215 21.4799 19.1052 21.4547 19.0811 21.4199C19.0326 21.35 18.9518 21.2398 18.835 21.1035C18.6013 20.8309 18.2245 20.4528 17.6768 20.0693C16.5917 19.3098 14.7911 18.5 12 18.5C9.20892 18.5 7.40825 19.3098 6.32324 20.0693C5.77551 20.4528 5.39875 20.8309 5.16504 21.1035C5.04819 21.2398 4.96745 21.35 4.91895 21.4199C4.89483 21.4547 4.87846 21.4799 4.87012 21.4932C4.86779 21.4969 4.86535 21.4992 4.86426 21.501ZM15.5 8.5C15.5 7.8628 15.4988 7.3395 15.4385 6.87793C15.3794 6.42536 15.2714 6.11427 15.1143 5.88672C14.8405 5.49042 14.1554 5 12 5C9.8446 5 9.15948 5.49042 8.88574 5.88672C8.72858 6.11427 8.62063 6.42536 8.56152 6.87793C8.50125 7.3395 8.5 7.8628 8.5 8.5C8.5 10.2726 8.64733 11.3481 9.08301 12.0029C9.43884 12.5376 10.1482 13 12 13C13.8518 13 14.5612 12.5376 14.917 12.0029C15.3527 11.3481 15.5 10.2726 15.5 8.5ZM17.5 8.5C17.5 10.2127 17.3973 11.8874 16.583 13.1113C15.6888 14.4552 14.148 15 12 15C9.85198 15 8.31119 14.4552 7.41699 13.1113C6.60267 11.8874 6.5 10.2127 6.5 8.5C6.5 7.89466 6.49879 7.23424 6.5791 6.61914C6.6606 5.99514 6.83415 5.33668 7.23926 4.75C8.09052 3.51762 9.6554 3 12 3C14.3446 3 15.9095 3.51762 16.7607 4.75C17.1659 5.33668 17.3394 5.99514 17.4209 6.61914C17.5012 7.23424 17.5 7.89466 17.5 8.5Z" fill="#F9F9FA"/>
</svg>
